HIERARCHY
ROOT Hips
{
  OFFSET -4.67483 98.9033 23.2553
  CHANNELS 6 Xposition Yposition Zposition Zrotation Xrotation Yrotation
  JOINT ToSpine
  {
    OFFSET -2.69724 7.43032 -0.144315
    CHANNELS 3 Zrotation Xrotation Yrotation
    JOINT Spine
    {
      OFFSET -0.0310711 10.7595 1.96963
      CHANNELS 3 Zrotation Xrotation Yrotation
      JOINT Spine1
      {
        OFFSET 19.9056 3.91189 0.764692
        CHANNELS 3 Zrotation Xrotation Yrotation
        JOINT Neck
        {
          OFFSET 25.9749 7.03908 -0.130764
          CHANNELS 3 Zrotation Xrotation Yrotation
          JOINT Head
          {
            OFFSET 9.52751 0.295786 -0.907742
            CHANNELS 3 Zrotation Xrotation Yrotation
            End Site
            {
              OFFSET 16.4037 0.713936 2.7358
            }
          }
        }
        JOINT LeftShoulder
        {
          OFFSET 17.7449 4.33886 11.7777
          CHANNELS 3 Zrotation Xrotation Yrotation
          JOINT LeftArm
          {
            OFFSET 0.911315 1.27913 9.80584
            CHANNELS 3 Zrotation Xrotation Yrotation
            JOINT LeftForeArm
            {
              OFFSET 28.6126 1.18197 -3.53199
              CHANNELS 3 Zrotation Xrotation Yrotation
              JOINT LeftHand
              {
                OFFSET 27.5088 0.0218783 0.327423
                CHANNELS 3 Zrotation Xrotation Yrotation
                End Site
                {
                  OFFSET 18.6038 -0.000155887 0.382096
                }
              }
            }
          }
        }
        JOINT RightShoulder
        {
          OFFSET 17.1009 2.89543 -12.2328
          CHANNELS 3 Zrotation Xrotation Yrotation
          JOINT RightArm
          {
            OFFSET 1.4228 0.178766 -10.211
            CHANNELS 3 Zrotation Xrotation Yrotation
            JOINT RightForeArm
            {
              OFFSET 28.733 1.87905 2.64907
              CHANNELS 3 Zrotation Xrotation Yrotation
              JOINT RightHand
              {
                OFFSET 27.4588 0.290562 -0.101845
                CHANNELS 3 Zrotation Xrotation Yrotation
                End Site
                {
                  OFFSET 17.8396 -0.255518 -0.000602873
                }
              }
            }
          }
        }
      }
    }
  }
  JOINT LeftUpLeg
  {
    OFFSET -5.61296 -2.22332 -10.2353
    CHANNELS 3 Zrotation Xrotation Yrotation
    JOINT LeftLeg
    {
      OFFSET 2.56703 -44.7417 -7.93097
      CHANNELS 3 Zrotation Xrotation Yrotation
      JOINT LeftFoot
      {
        OFFSET 3.16933 -46.5642 -3.96578
        CHANNELS 3 Zrotation Xrotation Yrotation
        JOINT LeftToeBase
        {
          OFFSET 0.346054 -6.02161 12.8035
          CHANNELS 3 Zrotation Xrotation Yrotation
          End Site
          {
            OFFSET 0.134235 -1.35082 5.13018
          }
        }
      }
    }
  }
  JOINT RightUpLeg
  {
    OFFSET -5.7928 -1.72406 10.6446
    CHANNELS 3 Zrotation Xrotation Yrotation
    JOINT RightLeg
    {
      OFFSET -2.57161 -44.7178 -7.85259
      CHANNELS 3 Zrotation Xrotation Yrotation
      JOINT RightFoot
      {
        OFFSET -3.10148 -46.5936 -4.03391
        CHANNELS 3 Zrotation Xrotation Yrotation
        JOINT RightToeBase
        {
          OFFSET -0.0828122 -6.13587 12.8035
          CHANNELS 3 Zrotation Xrotation Yrotation
          End Site
          {
            OFFSET -0.131328 -1.35082 5.13018
          }
        }
      }
    }
  }
}
MOTION
Frames:	6
Frame Time:	0.0333333
-268.315 88.9927 -234.496 65.4145 -18.6186 -32.1931 -70.1915 0 88.8779 103.031 73.6902 -32.0967 11.6681 23.4327 -6.17619 -149.929 22.5558 151.011 -134.772 59.4079 166.366 1.172 -8.25798 -17.0426 -50.6747 20.1967 -133.529 -24.7004 -3.49047 -81.6246 -45.718 -2.7424 8.29706 0.334253 -1.00247 32.6919 -72.3313 -52.4431 71.9748 5.23966 -0.4541 107.123 29.2787 -2.7423 -11.0707 -20.3369 -28.2307 107.54 -4.50052 63.0057 3.92566 12.5082 18.2605 -2.26905 -15.0796 -53.1758 1.34585 -34.0825 -18.0703 97.1629 171.456 48.063 -171.751 -10.2642 -2.5251 1.37258 -3.39232 1.09742 7.39594 
-256.331 88.2761 -221.63 66.6531 -19.1693 -25.6018 -70.1915 0 88.8779 114.109 68.6786 -38.6767 6.61182 20.679 -4.10846 -154.177 22.444 157.834 -143.334 59.9693 171.223 1.43568 -5.19522 -18.469 -49.8228 7.61764 -139.913 -29.9534 -4.25875 -81.8621 -78.9017 -5.20843 8.09852 0.219414 -0.319838 25.4072 -80.3448 -59.3938 55.7208 7.98666 0.92638 113.551 15.4565 -0.852995 -6.91091 -37.8141 -25.2771 94.5157 -4.37633 63.4515 6.1573 13.4324 11.9577 -2.25089 -19.7079 -59.6894 -3.79147 -14.3613 -10.1116 101.153 170.993 46.2819 -165.82 -7.2091 -3.12546 1.07237 3.78644 7.63281 -14.3854 
-242.511 88.2364 -206.611 67.7207 -19.9977 -19.9814 -70.1915 0 88.8779 116.495 66.9163 -39.2317 3.26729 18.7534 0.429485 -158.749 22.637 164.154 -151.777 60.8557 175.512 1.57413 -4.07378 -19.4178 -49.2934 -2.11513 -142.842 -41.486 -2.46921 -86.1682 -40.0051 -14.3471 40.2105 0.141532 1.32521 17.655 -90.5878 -65.9114 35.7398 11.0658 2.79341 116.804 10.4737 0.0464563 0.173382 -58.46 -15.6275 86.3663 -4.28776 56.5694 -2.26654 12.0034 6.79686 -1.77162 -16.4922 -57.6153 1.9801 -4.45088 -4.95349 99.9885 169.763 58.7064 -167.003 -7.58395 -7.5288 1.13204 6.31556 4.5749 -19.1695 
-229.005 91.2805 -192.362 65.0011 -22.1327 -13.1326 -70.1915 0 88.8779 112.073 66.3044 -28.803 2.75563 17.1079 4.39348 -159.303 20.4106 164.32 -149.097 57.6626 170.685 1.58458 -2.93992 -18.0589 -48.4449 -4.32615 -139.938 -43.5216 1.84929 -90.5555 -10.3947 -3.44036 39.4818 0.121018 4.53452 14.0031 -94.93 -68.2624 25.5567 7.05132 0.783477 117.631 9.42258 0.141616 1.47446 -73.1249 -0.146167 84.8286 -3.47596 43.9543 -13.5973 3.68166 -0.359712 -0.570905 -7.99675 -33.9942 12.0587 0.306181 -0.956689 92.3608 148.432 83.1619 -148.463 -7.55819 -3.50908 1.10763 9.05424 -8.7947 -20.3654 
-215.073 93.9737 -179.848 66.3705 -24.538 -13.6895 -70.1915 0 88.8779 110.192 64.6955 -28.3236 2.90104 15.9826 4.25334 -158.631 18.128 162.429 -147.633 54.4827 166.38 1.79277 -0.00950036 -17.9731 -46.595 -5.56165 -133.484 -38.1706 5.06928 -94.6136 0.617892 0.204629 24.9924 -0.0164314 7.20579 15.0408 -86.5508 -66.359 34.2222 7.5282 0.914181 116.066 8.69199 0.173217 2.08926 -84.9908 -2.51095 78.1931 -2.68731 40.9651 -9.11186 2.71991 6.89524 -0.110127 -5.06396 -14.4912 13.4528 -4.67629 -1.4633 91.8517 6.24044 69.2967 -4.9136 -5.4244 -4.8123 0.944029 7.44824 -9.83492 -13.9534 
-203.467 94.2985 -170.208 67.1668 -28.2117 -14.1552 -70.1915 0 88.8779 115.138 64.9988 -30.4854 6.45852 18.4234 1.83563 -159.494 18.773 164.081 -149.169 55.55 167.994 1.85906 -0.214486 -18.8986 -46.1563 -3.63997 -129.893 -33.9243 5.27115 -95.7876 4.5404 0.518514 13.6488 -0.0443374 5.40434 16.7593 -79.1634 -63.0806 46.9989 6.51194 0.256799 113.211 6.94983 0.228249 3.76094 -82.7866 -7.14027 79.5162 -5.56595 63.9013 -0.343346 1.14782 12.2178 0.497066 -7.3445 -29.6275 9.93298 -9.07474 -3.47922 84.3074 2.83948 52.8489 1.30024 -4.84406 0.620148 0.739313 6.76135 -11.2091 -10.2529 
